<svg width="28" height="28" viewBox="0 0 28 28" fill="none" xmlns="http://www.w3.org/2000/svg">
<circle cx="14" cy="14" r="14" fill="black"/>
<path d="M14.1623 8.66675C14.5183 8.66871 15.4092 8.67732 16.3557 8.71523L16.6913 8.72987C17.6443 8.77499 18.5965 8.85207 19.0688 8.98375C19.6987 9.16071 20.1939 9.67708 20.3612 10.3316C20.6277 11.371 20.661 13.3997 20.6651 13.8906L20.6657 13.9923V13.9995C20.6657 13.9995 20.6657 14.0019 20.6657 14.0067L20.6651 14.1084C20.661 14.5993 20.6277 16.628 20.3612 17.6674C20.1915 18.3243 19.6964 18.8407 19.0688 19.0153C18.5965 19.1469 17.6443 19.224 16.6913 19.2691L16.3557 19.2837C15.4092 19.3217 14.5183 19.3303 14.1623 19.3323L14.006 19.3328H13.9991C13.9991 19.3328 13.9967 19.3328 13.9921 19.3328L13.836 19.3323C13.0824 19.3281 9.93149 19.2941 8.92935 19.0153C8.29941 18.8383 7.80429 18.3219 7.63692 17.6674C7.37047 16.628 7.33717 14.5993 7.33301 14.1084V13.8906C7.33717 13.3997 7.37047 11.371 7.63692 10.3316C7.80661 9.67465 8.30173 9.15829 8.92935 8.98375C9.93149 8.7049 13.0824 8.67089 13.836 8.66675H14.1623ZM12.6657 11.6662V16.3328L16.6657 13.9995L12.6657 11.6662Z" fill="white"/>
</svg>
