<svg width="120" height="42" viewBox="0 0 120 42" fill="none" xmlns="http://www.w3.org/2000/svg">
<path fill-rule="evenodd" clip-rule="evenodd" d="M50.4432 3.5117C50.0776 3.67855 49.579 4.0623 49.313 4.34594C49.0637 4.64627 48.8144 5.1635 48.7645 5.51388C48.6981 5.84758 48.6981 6.43155 48.7645 6.79861C48.8144 7.16568 49.0803 7.81639 49.3629 8.26688C49.6288 8.70068 50.2604 9.36808 50.7424 9.73514C51.2078 10.1189 52.0388 10.6361 52.554 10.9031C53.0859 11.17 53.651 11.3869 53.8006 11.3869C53.9668 11.3703 54.5485 11.1367 55.097 10.8363C55.6288 10.536 56.5263 9.88531 57.0582 9.38476C57.6066 8.88422 58.1551 8.25019 58.3047 7.96655C58.4543 7.69959 58.6205 7.13231 58.687 6.71519C58.7535 6.29807 58.7368 5.68073 58.6537 5.33035C58.5706 4.99665 58.3047 4.47942 58.0388 4.19578C57.7895 3.91214 57.2909 3.57844 56.9252 3.42828C56.4931 3.26143 55.9945 3.21137 55.5125 3.27811C55.097 3.32817 54.5485 3.54507 54.2992 3.74529L53.8172 4.12904C52.8698 3.56176 52.2715 3.34485 51.856 3.2948C51.3075 3.22806 50.9252 3.2948 50.4432 3.5117ZM50.0441 6.1646C50.0441 5.69742 50.177 5.38041 50.526 5.03003C50.8585 4.67965 51.1576 4.54617 51.5565 4.54617C51.8557 4.56286 52.2712 4.64628 52.4706 4.76307C52.6701 4.87987 53.0524 5.26362 53.3515 5.63068C53.6341 5.99775 53.9 6.56503 54.0496 7.46602L54.2823 7.04889C54.3986 6.81531 54.4983 6.28139 54.515 5.84759C54.515 5.21356 54.5981 4.99666 54.8806 4.79644C55.0967 4.66296 55.5454 4.54617 55.8778 4.54617C56.3765 4.54617 56.6258 4.66296 57.0247 5.09677C57.5067 5.58063 57.5399 5.69742 57.4402 6.3815C57.3737 6.79862 57.1244 7.41596 56.8751 7.78303C56.6258 8.13341 55.8779 8.78412 55.2297 9.23461C54.5648 9.6851 53.9499 10.0522 53.8501 10.0522C53.7504 10.0522 53.4014 9.902 53.069 9.73515C52.72 9.55162 52.1216 9.18455 51.7393 8.90091C51.3405 8.61727 50.792 8.0333 50.526 7.59949C50.177 7.04889 50.0274 6.5984 50.0441 6.1646Z" fill="white"/>
<path d="M97.2299 5.43046C96.9141 5.54725 96.5319 5.83089 96.3823 6.0478C96.2161 6.28138 96.0166 6.66513 95.9169 6.93209C95.8005 7.23242 95.7341 10.9198 95.7341 18.1109V28.8226C96.3324 29.9905 96.7313 30.4577 96.9972 30.6079C97.3296 30.7914 97.9778 30.8915 99.1911 30.9416L100.886 30.9916C100.886 9.83525 100.837 7.26579 100.67 6.83198C100.554 6.54834 100.155 6.08117 99.7895 5.79752C99.374 5.4972 98.892 5.29698 98.4765 5.26361C98.1108 5.23024 97.5457 5.31366 97.2299 5.43046Z" fill="white"/>
<path fill-rule="evenodd" clip-rule="evenodd" d="M115.479 6.0478C115.645 5.83089 116.028 5.54725 116.343 5.43046C116.659 5.31366 117.125 5.23024 117.374 5.21355C117.64 5.21355 118.039 5.29698 118.288 5.39709C118.554 5.4972 118.936 5.73078 119.136 5.931C119.352 6.13122 119.634 6.56503 119.767 6.88204C119.967 7.3659 120 9.36807 120 30.9082L116.427 30.8915L114.931 29.4066L114.349 29.9572C114.033 30.2575 113.319 30.6746 112.77 30.8915C111.922 31.2085 111.524 31.2586 110.194 31.2085C108.831 31.1585 108.465 31.075 107.535 30.6245C106.753 30.2575 106.155 29.7903 105.407 28.9727C104.776 28.2887 104.111 27.3376 103.778 26.6536C103.479 26.0195 103.114 24.9684 102.964 24.3177C102.831 23.6837 102.715 22.6325 102.715 21.9818C102.715 21.3478 102.831 20.2966 102.964 19.6459C103.097 19.0119 103.479 17.9107 103.828 17.2266C104.26 16.359 104.792 15.6082 105.607 14.7906C106.504 13.8897 107.019 13.5059 107.784 13.2223C108.449 12.9553 109.263 12.8051 110.194 12.7551C110.975 12.7217 111.989 12.7718 112.438 12.8719C112.886 12.972 113.618 13.2723 114.848 14.0565V10.853C114.848 9.08443 114.931 7.3659 115.014 7.04889C115.114 6.73187 115.313 6.28138 115.479 6.0478ZM109.878 17.9441C109.462 18.1443 108.964 18.5281 108.764 18.8117C108.565 19.0953 108.266 19.7294 108.099 20.2299C107.883 20.914 107.834 21.4646 107.9 22.3989C107.966 23.2832 108.116 23.9006 108.432 24.5346C108.665 25.0018 109.063 25.5524 109.329 25.7359C109.579 25.9028 110.194 26.153 110.692 26.2531C111.473 26.4367 111.706 26.42 112.354 26.1864C112.786 26.0362 113.368 25.6358 113.734 25.252C114.116 24.8349 114.448 24.2343 114.598 23.6837C114.731 23.2165 114.847 22.3822 114.847 21.8483C114.847 21.3144 114.698 20.5135 114.515 20.013C114.332 19.5291 113.917 18.8784 113.568 18.5447C113.219 18.211 112.67 17.844 112.354 17.7439C112.039 17.6438 111.507 17.5603 111.191 17.5603C110.875 17.5603 110.277 17.7272 109.878 17.9441Z" fill="white"/>
<path fill-rule="evenodd" clip-rule="evenodd" d="M10.1385 6.89872C9.77285 6.99883 9.3241 7.33253 8.89197 7.83307C8.37673 8.43373 7.9446 9.28465 7.19668 11.2201C6.6482 12.6383 5.61773 15.3412 4.91967 17.2266C4.68287 17.8818 4.35976 18.7667 3.99778 19.758L3.9969 19.7604C3.3174 21.6213 2.50105 23.857 1.8615 25.6525C0.0831025 30.5244 0.0498615 30.6579 0.398892 30.8081C0.581717 30.8915 1.61219 30.9749 2.65928 30.9749C4.22161 30.9916 4.67036 30.9416 5.03601 30.708C5.28532 30.5411 5.63435 30.1574 5.81717 29.8737C6 29.5734 6.36565 28.6224 6.6482 27.7881L7.14681 26.2364H15.8726C16.8199 29.0895 17.1856 29.8404 17.518 30.2074C17.9003 30.6245 18.2493 30.8081 18.8643 30.9249C19.4294 31.025 19.8781 31.025 20.277 30.8915C20.5928 30.7914 21.0249 30.5411 21.241 30.3409C21.4404 30.1574 21.6898 29.7236 21.7895 29.4066C21.8892 29.0895 21.9224 28.5223 21.856 28.1552C21.8061 27.7881 21.6399 27.1207 21.4903 26.6536C21.3573 26.2031 20.0111 22.449 18.4986 18.3111C16.9862 14.19 15.4737 10.2023 15.1247 9.46818C14.7756 8.73405 14.2604 7.9165 13.9945 7.63285C13.7285 7.3659 13.2133 7.0322 12.8643 6.93209C12.5152 6.8153 11.8837 6.73187 11.4681 6.73187C11.0526 6.73187 10.4543 6.8153 10.1385 6.89872ZM10.0385 17.4769C10.72 15.458 11.3682 13.5893 11.4679 13.3057C11.6673 12.8052 11.6839 12.8385 12.2324 14.4736C12.5316 15.3913 13.0967 17.1933 13.479 18.478C13.8612 19.7627 14.1936 20.914 14.2269 21.0308C14.2767 21.1809 13.6618 21.231 11.551 21.231C10.0385 21.231 8.8086 21.2143 8.8086 21.1976C8.8086 21.1643 9.35707 19.4958 10.0385 17.4769Z" fill="white"/>
<path fill-rule="evenodd" clip-rule="evenodd" d="M62.9917 13.2723C63.4903 13.0387 64.338 12.8052 64.8864 12.7384C65.4183 12.6884 66.349 12.6884 66.964 12.7718C67.5623 12.8385 68.2936 13.0054 68.5596 13.1388C68.8255 13.2723 69.3573 13.6394 70.3878 14.5237L70.687 14.0398C70.8366 13.7729 71.2188 13.4225 71.518 13.2723C71.8837 13.0721 72.5485 12.972 75.2909 12.8886L75.2408 22.2401C75.1911 31.409 75.1906 31.5103 74.8255 32.4932C74.6094 33.0438 74.2438 33.8614 73.9945 34.3119C73.7452 34.7624 73.1967 35.4298 72.7812 35.8135C72.3657 36.1973 71.5845 36.7312 71.036 37.0315C70.5042 37.3152 69.5568 37.6822 68.9418 37.8157C68.2604 37.9826 67.0637 38.0827 65.9501 38.0827C64.6371 38.0827 63.6565 37.9826 62.6593 37.7323C61.8781 37.5487 60.7978 37.1483 60.2659 36.8647C59.7175 36.5643 59.0859 36.0805 58.8532 35.7635C58.5042 35.313 58.4211 34.996 58.4211 34.2952C58.4211 33.4443 58.4709 33.3442 59.1357 32.7268C59.6676 32.2263 59.9668 32.0761 60.4155 32.0761C60.7313 32.0761 61.7285 32.3931 62.626 32.7602C63.8726 33.2941 64.5208 33.4777 65.4848 33.5277C66.1662 33.5778 67.0305 33.5444 67.3961 33.4443C67.7618 33.3442 68.3102 33.0939 68.626 32.877C68.9418 32.6601 69.374 32.1595 69.59 31.7424C69.8061 31.3253 70.0222 30.5411 70.1884 28.9894L69.374 29.7069C68.8421 30.1741 68.2438 30.5244 67.6454 30.6913C66.9972 30.8748 66.2493 30.9249 65.0693 30.8748C63.7396 30.8248 63.2244 30.7247 62.4931 30.391C61.9945 30.1574 61.2465 29.6735 60.8476 29.3064C60.4488 28.9561 59.867 28.2553 59.5679 27.7881C59.2521 27.3043 58.8532 26.4367 58.6537 25.8694C58.4709 25.2854 58.2216 24.2176 58.1219 23.4834C58.0055 22.5324 58.0055 21.7148 58.1219 20.647C58.2216 19.7794 58.5042 18.6448 58.7701 17.9774C59.0194 17.3434 59.5014 16.4424 59.8338 15.9753C60.1662 15.5248 60.8144 14.8073 61.2632 14.4069C61.7119 14.0065 62.4931 13.4892 62.9917 13.2723ZM65.8169 17.6771C65.6839 17.7272 65.3183 17.8773 65.0357 18.0275C64.7366 18.161 64.2712 18.5781 64.0219 18.9619C63.756 19.3289 63.4568 19.9463 63.3571 20.3133C63.2574 20.6804 63.1576 21.4312 63.1576 21.9818C63.1576 22.5324 63.274 23.3833 63.4069 23.8672C63.5399 24.3511 63.8889 25.0018 64.1881 25.3355C64.4873 25.6525 65.0357 26.0362 65.4014 26.1864C65.8446 26.3532 66.3709 26.4089 66.9803 26.3532C67.6285 26.2865 68.0939 26.1197 68.5427 25.786C68.9249 25.519 69.3737 24.9684 69.623 24.4845C69.9056 23.9006 70.0551 23.2832 70.105 22.4824C70.1549 21.6815 70.0884 20.9974 69.8889 20.3133C69.6895 19.5792 69.4236 19.1287 68.9083 18.6282C68.5094 18.211 67.9443 17.8607 67.5621 17.7439C67.1964 17.6438 66.7144 17.5603 66.4817 17.577C66.249 17.577 65.9499 17.6271 65.8169 17.6771Z" fill="white"/>
<path fill-rule="evenodd" clip-rule="evenodd" d="M85.3795 12.655C85.3629 12.6717 84.7812 12.7217 84.0997 12.7718C83.1524 12.8552 82.5873 13.0054 81.6898 13.4559C80.8753 13.8563 80.2105 14.3568 79.4958 15.1243C78.9141 15.725 78.2327 16.6593 77.9668 17.1933C77.7008 17.7105 77.3518 18.5948 77.1856 19.1454C76.9695 19.8461 76.8864 20.6971 76.8864 21.9818C76.8864 23.4 76.9529 24.0841 77.2355 24.9851C77.4349 25.6358 77.867 26.6035 78.1994 27.1541C78.5319 27.7047 79.1136 28.4722 79.4958 28.8726C79.8781 29.2731 80.5762 29.8237 81.0249 30.124C81.4903 30.4076 82.2881 30.7747 82.8199 30.9416C83.4515 31.1418 84.2992 31.2419 85.3961 31.2419C86.5097 31.2419 87.3573 31.1418 88.1717 30.9082C88.8199 30.7247 89.7341 30.2909 90.2327 29.9405C90.7313 29.6068 91.4626 28.906 91.8781 28.4055C92.277 27.9049 92.8255 27.054 93.0914 26.5368C93.3573 26.0028 93.6897 25.0685 93.8393 24.4512C94.0388 23.6002 94.0886 22.8327 94.0222 21.3978C93.9557 20.0631 93.8227 19.1788 93.5734 18.478C93.3906 17.9274 93.0249 17.1432 92.7922 16.7261C92.5429 16.309 91.9778 15.5748 91.5125 15.091C91.0471 14.5904 90.3324 14.0065 89.9169 13.7729C89.5014 13.5226 88.8698 13.2223 88.5042 13.1055C88.1385 12.972 87.2909 12.8052 86.626 12.7384C85.9446 12.6717 85.3961 12.6383 85.3795 12.655ZM83.2186 18.5281C83.4679 18.2778 83.9166 17.9608 84.1826 17.8273C84.4485 17.6771 84.9471 17.5603 85.2629 17.5603C85.5787 17.5603 86.1438 17.6438 86.5094 17.7439C86.9083 17.8607 87.4236 18.1944 87.7892 18.5781C88.2213 19.0119 88.5039 19.5458 88.6867 20.1799C88.8695 20.8472 88.936 21.5313 88.8862 22.3989C88.8363 23.1998 88.6867 23.8839 88.4706 24.3177C88.2878 24.6848 87.8557 25.2354 87.5233 25.519C87.1909 25.8193 86.6424 26.1363 86.2934 26.2364C85.9609 26.3199 85.5621 26.4033 85.4291 26.4033C85.2961 26.4033 84.8141 26.2698 84.3654 26.1197C83.8502 25.9361 83.3349 25.5857 83.0357 25.2187C82.7532 24.885 82.3709 24.1842 82.2047 23.6336C81.972 22.8995 81.9056 22.3656 81.9887 21.5647C82.0385 20.964 82.2213 20.1465 82.4208 19.7294C82.6036 19.3122 82.9693 18.7783 83.2186 18.5281Z" fill="white"/>
<path d="M29.4349 13.606C29.7507 13.4058 30.3324 13.1222 30.7479 12.9887C31.1634 12.8552 32.0609 12.7551 32.7424 12.7384C33.6233 12.7217 34.338 12.8385 35.1357 13.1055C35.867 13.3391 36.5485 13.7061 37.6454 14.6739L38.7258 13.9731C39.3241 13.5727 40.2548 13.1222 40.8033 12.972C41.5512 12.7551 42.1828 12.705 43.2964 12.7551C44.5097 12.8218 44.9917 12.9219 45.8726 13.3391C46.5374 13.6561 47.1524 14.0899 47.4848 14.4903C47.7673 14.8574 48.1828 15.5248 48.3989 15.9753C48.7808 16.8086 48.7812 16.8761 48.864 30.8642L48.8643 30.9082H47.1191C45.4571 30.9082 45.3573 30.8915 44.8587 30.4577C44.5596 30.1907 44.2438 29.8404 44.144 29.6568C44.0277 29.4399 43.928 27.5212 43.8781 24.2343L43.8778 24.2137C43.795 19.1787 43.7945 19.1444 43.3795 18.4113C43.1468 17.9941 42.7147 17.5436 42.3823 17.3601C42.0665 17.1933 41.5014 17.0598 41.1357 17.0598C40.7701 17.0598 40.2382 17.2099 39.9391 17.3935C39.6233 17.577 39.241 18.0442 39.0582 18.4446C38.759 19.0953 38.7258 19.5291 38.7258 23.984C38.7258 28.2553 38.6759 28.906 38.4266 29.49C38.2604 29.857 37.8781 30.3242 37.5956 30.5411C37.2133 30.8081 36.831 30.9082 36.1994 30.9082C35.6122 30.9082 35.1413 30.797 34.7867 30.5745C34.4875 30.391 34.1053 29.9905 33.9557 29.7069C33.6898 29.223 33.6399 28.4889 33.5734 24.0674C33.4903 19.3122 33.4737 18.9452 33.1413 18.3946C32.9584 18.0776 32.5429 17.6438 32.2271 17.4268C31.8283 17.1599 31.4294 17.0598 30.8476 17.0598C30.1496 17.0598 29.9668 17.1432 29.4183 17.6938C29.0693 18.0275 28.7202 18.6115 28.6039 18.9785C28.4875 19.3957 28.4211 21.3978 28.4211 24.3177C28.4211 28.4388 28.3878 29.0562 28.1219 29.5734C27.9723 29.8904 27.5734 30.3242 27.2576 30.5411C26.8421 30.8081 26.4432 30.9082 25.8449 30.9082C25.313 30.9082 24.8144 30.7914 24.482 30.5745C24.1496 30.3743 23.8006 29.9405 23.6011 29.49C23.2853 28.7725 23.2687 28.4221 23.3186 21.7816C23.3518 15.1077 23.3684 14.774 23.6842 14.2234C23.8837 13.9063 24.2826 13.5059 24.5983 13.3558C24.9141 13.1889 25.4792 13.0554 25.8449 13.0554C26.2105 13.0554 26.7922 13.1555 27.1413 13.3057C27.4737 13.4392 27.9058 13.7896 28.0886 14.0565C28.4044 14.5237 28.4377 14.5404 28.6371 14.2734C28.7701 14.1066 29.1191 13.8062 29.4349 13.606Z" fill="white"/>
<path d="M52.6039 13.0721C52.3379 13.1555 51.9889 13.3224 51.8393 13.4392C51.6898 13.5393 51.4072 13.9063 51.2078 14.2234C50.8587 14.7906 50.8587 14.9408 50.8587 21.8984C50.8587 28.589 50.8753 29.0228 51.1911 29.6568C51.3573 30.0239 51.7562 30.4744 52.0554 30.6579C52.5042 30.9249 52.903 30.9916 54.2659 30.9916H55.928C55.928 15.0743 55.9114 14.7906 55.5956 14.2234C55.3961 13.873 54.964 13.4892 54.5152 13.2556C54.0997 13.0554 53.6177 12.8886 53.4349 12.9053C53.2521 12.9053 52.8698 12.9887 52.6039 13.0721Z" fill="white"/>
<path d="M15.4238 35.7802C15.4072 34.9626 15.4571 34.2452 15.5402 34.1951C15.6233 34.1284 15.7562 34.0783 15.8393 34.0783C15.9391 34.0783 16.0388 34.2452 16.0554 34.4621C16.0886 34.6623 16.1219 35.2629 16.1219 35.7968C16.1219 36.3141 16.0886 36.8647 16.0388 36.9981C15.9889 37.1316 15.8393 37.2484 15.7064 37.2484C15.5069 37.2484 15.4571 36.9648 15.4238 35.7802Z" fill="white"/>
<path d="M28.5042 34.2952C28.4543 34.412 28.4211 35.1128 28.4543 35.8469C28.5042 36.9481 28.554 37.165 28.8033 37.1984C29.0526 37.2484 29.0859 37.0983 29.0526 35.7134C29.0194 34.729 28.9363 34.1617 28.8033 34.1117C28.7036 34.0783 28.5706 34.1617 28.5042 34.2952Z" fill="white"/>
<path d="M31.5789 35.7968C31.5789 35.2629 31.6288 34.6623 31.6953 34.4454C31.7618 34.2285 31.8781 34.095 31.9778 34.1284C32.0776 34.1617 32.1773 34.3953 32.2105 34.6289C32.2438 35.0293 32.3269 35.0794 32.8753 35.1294C33.4238 35.1628 33.5069 35.2296 33.6399 35.7468C33.723 36.0638 33.7396 36.531 33.6731 36.7979C33.6233 37.0482 33.4571 37.2484 33.3241 37.2484C33.1413 37.2484 33.0748 37.0649 33.0748 36.6311C33.0748 36.2807 33.0083 35.8803 32.9252 35.7468C32.8255 35.5966 32.6759 35.5466 32.5097 35.63C32.3269 35.7134 32.2438 35.9804 32.2438 36.4976C32.2438 37.0482 32.1773 37.2484 31.9945 37.2484C31.8615 37.2484 31.7119 37.1316 31.6621 36.9981C31.6122 36.8647 31.5789 36.3141 31.5789 35.7968Z" fill="white"/>
<path d="M47.385 34.1951C47.2521 34.2285 47.1524 34.3953 47.169 34.5455C47.1856 34.7123 47.0693 34.9793 46.903 35.1461C46.7036 35.3797 46.6704 35.4798 46.8366 35.5132C46.9363 35.5466 47.036 35.8469 47.036 36.1639C47.036 36.4809 47.0693 36.8647 47.1191 36.9981C47.169 37.1316 47.3186 37.2484 47.4515 37.2484C47.6343 37.2484 47.7008 37.0482 47.7008 36.4976C47.7008 35.9804 47.7839 35.7134 47.9501 35.6634C48.0831 35.6133 48.1994 35.4631 48.1994 35.3297C48.1994 35.1962 48.0665 35.0794 47.9169 35.0794C47.6343 35.0961 47.6343 35.0794 47.9169 34.7457C48.0665 34.5622 48.1662 34.3453 48.1163 34.2452C48.0665 34.1617 47.9335 34.0783 47.8338 34.095C47.7174 34.095 47.5014 34.145 47.385 34.1951Z" fill="white"/>
<path d="M0 35.8803C0 35.3964 0.0498615 34.8291 0.099723 34.6289C0.149584 34.412 0.282548 34.2452 0.382271 34.2452C0.498615 34.2452 0.897507 34.679 1.99446 36.1639V35.4131C1.99446 34.996 2.07756 34.5622 2.16066 34.4287C2.26039 34.3119 2.40997 34.2452 2.49307 34.3119C2.5928 34.3619 2.65928 35.046 2.65928 35.8302C2.65928 36.9815 2.60942 37.2484 2.40997 37.2484C2.27701 37.2484 1.8615 36.8814 0.831025 35.5799V36.1639C0.831025 36.4809 0.797784 36.8647 0.747922 36.9981C0.698061 37.1316 0.548476 37.2484 0.415512 37.2484C0.282548 37.2484 0.132964 37.1316 0.0831025 36.9981C0.033241 36.8647 0 36.3474 0 35.8803Z" fill="white"/>
<path d="M19.7618 34.4454C19.6122 34.5789 19.5623 34.996 19.5789 35.6967C19.5956 36.2807 19.6454 36.8647 19.6953 36.9981C19.7452 37.1316 19.8947 37.2484 20.0277 37.2484C20.1939 37.2484 20.277 37.0649 20.277 36.6645C20.277 36.0972 20.2936 36.0805 20.9418 36.0805C21.5734 36.0805 21.6066 36.1139 21.6565 36.6144C21.6731 36.9815 21.7895 37.1817 21.9889 37.1984C22.2382 37.2484 22.2715 37.0983 22.2382 35.7968C22.205 34.6289 22.1385 34.3286 21.9391 34.3286C21.7729 34.3286 21.6731 34.5121 21.6565 34.8792C21.6066 35.3797 21.5734 35.4131 20.9418 35.4131C20.3102 35.4131 20.277 35.3797 20.2936 34.9292C20.3102 34.6456 20.2438 34.3953 20.144 34.3453C20.0609 34.2952 19.8781 34.3453 19.7618 34.4454Z" fill="white"/>
<path fill-rule="evenodd" clip-rule="evenodd" d="M39.6066 35.9136C39.5734 35.1795 39.6399 34.5789 39.7396 34.4621C39.8393 34.3453 40.1551 34.2452 40.4543 34.2452C40.7368 34.2452 41.1357 34.3619 41.3518 34.4954C41.6011 34.6623 41.7175 34.9125 41.7175 35.2963C41.7341 35.5799 41.6343 35.9136 41.518 36.0304C41.4017 36.1305 41.0693 36.2473 40.8033 36.2807C40.4044 36.3141 40.3047 36.4142 40.2715 36.7979C40.2382 37.1149 40.1385 37.2317 39.9391 37.1984C39.6898 37.165 39.6399 36.9481 39.6066 35.9136ZM40.4374 35.7468C40.3211 35.7468 40.2213 35.5633 40.2213 35.3297C40.2213 35.0294 40.3044 34.9126 40.5537 34.9126C40.7366 34.9126 40.9194 35.0127 40.9526 35.1128C41.0025 35.2296 40.9526 35.4298 40.8363 35.5299C40.7366 35.6467 40.5537 35.7468 40.4374 35.7468Z" fill="white"/>
<path d="M6.48199 34.6289C6.48199 34.729 6.34903 34.9793 6.18283 35.1461C5.98338 35.3797 5.95014 35.4798 6.09972 35.5132C6.21607 35.5466 6.31579 35.8469 6.31579 36.1639C6.31579 36.4809 6.34903 36.8647 6.39889 36.9981C6.44875 37.1316 6.59834 37.2484 6.7313 37.2484C6.91413 37.2484 6.98061 37.0482 6.98061 36.4976C6.98061 35.9637 7.06371 35.6967 7.26316 35.5799C7.54571 35.4298 7.54571 35.3964 7.27978 35.2129C7.11357 35.0961 6.99723 34.8625 6.98061 34.7123C6.98061 34.5455 6.86427 34.412 6.7313 34.412C6.59834 34.412 6.48199 34.5121 6.48199 34.6289Z" fill="white"/>
<path d="M29.7839 35.1461C29.9501 34.9793 30.0831 34.729 30.0831 34.6289C30.0831 34.5121 30.1994 34.412 30.3324 34.412C30.4654 34.412 30.5817 34.5455 30.5817 34.7123C30.5983 34.8625 30.7147 35.0961 30.8809 35.2129C31.1468 35.3964 31.1468 35.4298 30.8643 35.5799C30.6648 35.6967 30.5817 35.9637 30.5817 36.4976C30.5817 37.0482 30.5152 37.2484 30.3324 37.2484C30.1994 37.2484 30.0499 37.1316 30 36.9981C29.9501 36.8647 29.9169 36.4809 29.9169 36.1639C29.9169 35.8469 29.8172 35.5466 29.7008 35.5132C29.5512 35.4798 29.5845 35.3797 29.7839 35.1461Z" fill="white"/>
<path d="M53.8504 34.7457C53.8504 34.9292 53.7507 35.1128 53.6344 35.1461C53.4681 35.1962 53.4681 35.2796 53.6344 35.5633C53.7507 35.7468 53.8504 36.214 53.8504 36.581C53.8504 37.1149 53.9003 37.2484 54.133 37.1984C54.3657 37.165 54.4488 36.9648 54.482 36.4142C54.5152 35.9637 54.6482 35.5799 54.8144 35.4631C55.0637 35.2963 55.0637 35.2629 54.8476 35.1795C54.7147 35.1294 54.5485 34.9292 54.4654 34.7457C54.3989 34.5622 54.2327 34.412 54.0997 34.412C53.9668 34.412 53.8504 34.5622 53.8504 34.7457Z" fill="white"/>
<path d="M42.2825 35.7968C42.3324 35.5799 42.5817 35.313 42.8144 35.1795C43.0471 35.0627 43.4127 34.996 43.5956 35.046C43.795 35.0794 44.0609 35.2462 44.1773 35.3964C44.2936 35.5466 44.3767 35.8302 44.3767 36.0471C44.3767 36.3641 44.2936 36.4142 43.7119 36.4142C43.2632 36.4142 43.0803 36.4809 43.1634 36.5977C43.2465 36.7145 43.5125 36.7479 43.8283 36.6811C44.2438 36.5977 44.3767 36.6311 44.3767 36.8313C44.3767 36.9648 44.1939 37.1817 43.9612 37.2985C43.6122 37.4653 43.446 37.4486 42.964 37.2151C42.6482 37.0482 42.3324 36.7479 42.2825 36.5477C42.2327 36.3308 42.2327 35.9971 42.2825 35.7968Z" fill="white"/>
<path d="M49.2299 35.1461C49.0471 35.2462 48.7978 35.5299 48.6814 35.7802C48.4986 36.1472 48.482 36.3141 48.6482 36.6478C48.7645 36.8814 49.0305 37.1483 49.2299 37.2317C49.446 37.3152 49.8449 37.3318 50.1108 37.2651C50.3934 37.1984 50.626 37.0148 50.6427 36.8647C50.6925 36.6311 50.5928 36.5977 50.144 36.6811C49.8283 36.7479 49.5623 36.7145 49.4792 36.5977C49.3961 36.4809 49.5789 36.4142 50.0277 36.4142C50.6094 36.4142 50.6925 36.3641 50.6925 36.0471C50.6925 35.8302 50.626 35.5799 50.5596 35.4631C50.4931 35.363 50.2438 35.1962 49.9945 35.1128C49.6787 34.996 49.4626 34.996 49.2299 35.1461Z" fill="white"/>
<path d="M51.3407 35.7802C51.4571 35.5299 51.723 35.2462 51.9224 35.1294C52.1053 35.0127 52.3712 34.9459 52.4709 34.996C52.5873 35.046 52.7535 35.0794 52.8532 35.0794C52.9363 35.0794 53.0194 35.2296 53.0194 35.4131C53.0194 35.68 52.9363 35.7301 52.6371 35.6467C52.4044 35.5966 52.1884 35.6634 52.0222 35.8302C51.8393 36.0471 51.8227 36.1806 51.9557 36.3808C52.0554 36.5477 52.3213 36.6645 52.5374 36.6645C52.7867 36.6645 52.9529 36.7812 52.9695 36.9648C53.0028 37.1149 52.8864 37.2818 52.7202 37.3318C52.5706 37.3819 52.2382 37.3485 51.9723 37.2484C51.723 37.165 51.4238 36.8814 51.3075 36.6478C51.1413 36.3141 51.1579 36.1472 51.3407 35.7802Z" fill="white"/>
<path fill-rule="evenodd" clip-rule="evenodd" d="M3.55679 35.4465C3.4072 35.6634 3.29086 35.9971 3.30748 36.1973C3.3241 36.4142 3.50693 36.7646 3.73961 36.9981C3.9723 37.2317 4.23823 37.3652 4.35457 37.2985C4.47091 37.2484 4.77008 37.1984 5.01939 37.2151C5.19111 37.2274 5.29947 37.2351 5.36784 37.1864C5.48476 37.103 5.48476 36.8544 5.48476 36.1806V35.1294C3.98892 35.0961 3.78947 35.1628 3.55679 35.4465ZM4.08838 35.8636C4.02189 36.0304 4.03851 36.2974 4.105 36.4642C4.1881 36.6311 4.3543 36.7479 4.48727 36.7145C4.63685 36.6812 4.73657 36.4642 4.73657 36.1639C4.73657 35.8469 4.63685 35.6467 4.47065 35.6133C4.32106 35.5799 4.15486 35.6967 4.08838 35.8636Z" fill="white"/>
<path d="M8.04432 36.3808C7.99446 36.0805 7.99446 35.6634 8.04432 35.4631C8.1108 35.2462 8.27701 35.0794 8.40997 35.0794C8.57618 35.0794 8.64266 35.2796 8.64266 35.8302C8.64266 36.3308 8.72576 36.6255 8.89197 36.7145C9.02493 36.7812 9.19114 36.7979 9.22438 36.7479C9.27424 36.6978 9.37396 36.3141 9.44044 35.8636C9.50693 35.4298 9.63989 35.0794 9.73961 35.0794C9.87258 35.0794 9.92244 35.4131 9.90582 36.0304C9.8892 36.9147 9.85596 37.0148 9.42382 37.1984C9.05817 37.3819 8.90859 37.3652 8.55956 37.165C8.31025 37.0148 8.1108 36.6978 8.04432 36.3808Z" fill="white"/>
<path d="M10.7867 36.1806C10.8033 37.0148 10.8532 37.2484 11.0526 37.2484C11.2188 37.2484 11.3019 37.0649 11.3019 36.6645C11.3019 36.3474 11.4183 35.9637 11.5679 35.8302C11.7008 35.6967 11.9003 35.5799 11.9834 35.5799C12.0665 35.5799 12.1163 35.4798 12.1163 35.3464C12.0997 35.1795 11.9003 35.0961 11.4349 35.1128H10.7701L10.7867 36.1806Z" fill="white"/>
<path fill-rule="evenodd" clip-rule="evenodd" d="M12.5319 36.3308C12.482 36.0304 12.5485 35.6967 12.6981 35.4631C12.9141 35.1628 13.1136 35.0961 14.6094 35.1294L14.626 37.165L13.8283 37.1984C13.3961 37.2151 12.9474 37.1483 12.831 37.0315C12.7147 36.9314 12.5817 36.6144 12.5319 36.3308ZM13.213 36.4142C13.1632 36.2307 13.213 35.9637 13.3128 35.8302C13.4125 35.6967 13.5621 35.5799 13.6452 35.5799C13.7283 35.5799 13.8612 35.7134 13.9443 35.8636C14.0441 36.0471 14.0441 36.2807 13.9443 36.4476C13.8612 36.6144 13.6784 36.7479 13.5454 36.7479C13.4125 36.7479 13.2629 36.5977 13.213 36.4142Z" fill="white"/>
<path d="M23.1856 35.3797C23.0028 35.5633 22.8864 35.897 22.903 36.1806C22.9197 36.4475 23.0859 36.8146 23.2853 36.9981C23.4681 37.1817 23.8338 37.3318 24.0831 37.3318C24.3324 37.3318 24.6648 37.2484 24.8144 37.1316C24.964 37.0148 25.0637 36.848 25.0139 36.7479C24.964 36.6645 24.6981 36.6311 24.3823 36.6978C24.0499 36.7479 23.8006 36.7312 23.7175 36.6144C23.6343 36.4809 23.7673 36.4142 24.133 36.4142C24.4321 36.4142 24.7978 36.3474 24.9307 36.2473C25.1468 36.1139 25.1468 36.0471 24.9307 35.63C24.7313 35.2796 24.5152 35.1461 24.0831 35.1128C23.6842 35.0794 23.4017 35.1628 23.1856 35.3797Z" fill="white"/>
<path fill-rule="evenodd" clip-rule="evenodd" d="M25.5789 36.1806C25.5789 35.8469 25.6787 35.4965 25.8449 35.3464C26.0277 35.1628 26.3601 35.0961 27.6731 35.1628L27.7064 36.214C27.7562 37.2484 27.7562 37.2484 27.2909 37.2317C27.0416 37.2151 26.759 37.2317 26.6759 37.2484C26.5762 37.2651 26.41 37.2818 26.2936 37.2651C26.1773 37.2651 25.9778 37.1316 25.8449 36.9981C25.7119 36.8647 25.5956 36.4976 25.5789 36.1806ZM26.3266 35.7802C26.2767 35.897 26.2601 36.1472 26.2934 36.3308C26.3266 36.5143 26.4596 36.6812 26.5925 36.7145C26.7255 36.7479 26.8917 36.6311 26.9748 36.4642C27.0413 36.2974 27.0579 36.0304 27.008 35.8636C26.9582 35.7134 26.8086 35.5799 26.6756 35.5799C26.526 35.5799 26.3765 35.6801 26.3266 35.7802Z" fill="white"/>
<path d="M34.2382 35.3797C34.2382 35.5299 34.3878 35.9804 34.5706 36.3808C34.8199 36.898 34.8532 37.165 34.7368 37.4153C34.6371 37.5988 34.5706 37.8658 34.5706 37.9992C34.5706 38.1327 34.6537 38.2495 34.7701 38.2495C34.8864 38.2495 35.2687 37.6322 35.6177 36.8814C35.9668 36.1139 36.1994 35.4131 36.1496 35.2963C36.0997 35.1795 35.9834 35.0794 35.9003 35.0794C35.8006 35.0794 35.6011 35.363 35.4515 35.7134L35.1856 36.3308C34.7701 35.363 34.554 35.0794 34.4377 35.0794C34.3213 35.0794 34.2382 35.2129 34.2382 35.3797Z" fill="white"/>
<path d="M45.3241 37.2151C45.0748 37.2484 45.0416 37.0983 45.0416 36.1639V35.0794H45.7064C46.1219 35.0794 46.3712 35.1628 46.3712 35.2963C46.3712 35.4131 46.2216 35.5966 46.0388 35.7134C45.8227 35.8469 45.6898 36.1305 45.6565 36.5477C45.6399 36.9815 45.5402 37.1817 45.3241 37.2151Z" fill="white"/>
<path d="M37.0637 37.2484C36.831 37.2484 36.7313 37.1483 36.7479 36.898C36.7479 36.6811 36.8476 36.581 37.0305 36.6144C37.1801 36.6478 37.3296 36.7979 37.3463 36.9648C37.3795 37.1539 37.2853 37.2484 37.0637 37.2484Z" fill="white"/>
<path d="M16.7867 36.9147C16.7867 37.1372 16.8975 37.2484 17.1191 37.2484C17.3407 37.2484 17.4515 37.1372 17.4515 36.9147C17.4515 36.6923 17.3407 36.581 17.1191 36.581C16.8975 36.581 16.7867 36.6923 16.7867 36.9147Z" fill="white"/>
<path d="M55.446 36.8313C55.3795 36.9815 55.4626 37.1483 55.6288 37.2484C55.795 37.3318 55.9778 37.3485 56.0609 37.2818C56.1274 37.2151 56.1773 37.0315 56.1773 36.8814C56.1773 36.6978 56.0443 36.581 55.8615 36.581C55.6787 36.581 55.4958 36.6978 55.446 36.8313Z" fill="white"/>
</svg>
