<svg width="1920" height="100" viewBox="0 0 1920 100" fill="none" xmlns="http://www.w3.org/2000/svg">
<g clip-path="url(#clip0_587_2)">
<path d="M0 99.8958V-647.492C111.609 -640.106 223.705 -642.493 335 -654.653C473.476 -669.782 613.19 -669.782 751.667 -654.653C890.143 -639.523 1029.86 -639.523 1168.33 -654.653C1306.81 -669.782 1446.52 -669.782 1585 -654.653C1696.3 -642.493 1808.39 -640.106 1920 -647.492V86.0867C1911.66 86.8871 1903.33 87.7426 1895 88.6526C1756.52 103.782 1616.81 103.782 1478.33 88.6526C1339.86 73.5228 1200.14 73.5228 1061.67 88.6526C923.19 103.782 783.476 103.782 645 88.6526C506.524 73.5228 366.81 73.5228 228.333 88.6526C152.458 96.9427 76.2113 100.69 0 99.8958Z" fill="#F3F1EC"/>
</g>
<defs>
<clipPath id="clip0_587_2">
<rect width="1920" height="100" fill="white"/>
</clipPath>
</defs>
</svg>
