<svg width="1920" height="557" viewBox="0 0 1920 557" fill="none" xmlns="http://www.w3.org/2000/svg">
<path d="M0 793.896V18.5078C111.609 25.8942 223.705 23.5074 335 11.3474C473.476 -3.78245 613.19 -3.78245 751.667 11.3474C890.143 26.4771 1029.86 26.4771 1168.33 11.3474C1306.81 -3.78245 1446.52 -3.78245 1585 11.3474C1696.3 23.5074 1808.39 25.8942 1920 18.5079V780.087C1911.66 780.887 1903.33 781.743 1895 782.653C1756.52 797.782 1616.81 797.782 1478.33 782.653C1339.86 767.523 1200.14 767.523 1061.67 782.653C923.19 797.782 783.476 797.782 645 782.653C506.524 767.523 366.81 767.523 228.333 782.653C152.458 790.943 76.2113 794.69 0 793.896Z" fill="#F3F1EC"/>
</svg>
