<svg width="293" height="239" fill="none" xmlns="http://www.w3.org/2000/svg"><path d="M.812 10.84c3.63-4.206 9.112-5.917 14.42-6.777 4.647-.715 9.372-.924 14.043-.731 9.218.426 18.37 2.652 26.78 6.47 4.727 2.154 9.27 4.809 13.424 7.965 1.061.785-.21 2.422-1.238 1.612-7.148-5.398-15.365-9.364-24.01-11.668-8.587-2.295-17.62-3.017-26.459-1.934-5.456.664-11.58 1.939-15.347 6.302-.349.42-.977.54-1.43.216-.42-.348-.53-1.034-.183-1.454Z" fill="#3D954E"/><path d="M49.155 21.942c5.237-.549 10.482-1.154 15.719-1.702.62-.062 1.184-.132 1.805-.194.564-.07 1.202-.042 1.756-.26.734-.25.531-1.124.322-1.735-.722-2.431-1.624-4.828-2.461-7.275-.963-2.813-1.893-5.652-2.855-8.465-.419-1.223 1.497-2.015 1.883-.767.92 2.691 1.841 5.382 2.729 8.098.879 2.569 1.847 5.12 2.604 7.731.294 1.061.484 2.253-.114 3.223-.743 1.183-2.165 1.342-3.406 1.466l-8.26.899c-3.17.36-6.307.695-9.502 1.023-1.274.149-1.527-1.869-.22-2.043ZM228.943 228.791c1.493 4.47 6.123 7.172 10.436 8.344 4.782 1.311 9.855 1.159 14.62-.213 9.662-2.731 17.203-9.826 23.392-17.418 3.855-4.725 7.222-9.811 10.177-15.162.274-.497-.128-1.245-.592-1.427-.589-.24-1.153.094-1.427.592a102.412 102.412 0 0 1-8.527 12.923c-2.911 3.728-6.026 7.303-9.575 10.434-6.941 6.016-15.928 10.228-25.296 8.638-4.404-.742-9.651-3.027-11.173-7.633-.204-.55-.929-.761-1.435-.552-.646.282-.804.924-.6 1.474Z" fill="#3D954E"/><path d="m292.681 220.329-4.674-16.468c-.316-1.133-.542-2.697-1.918-2.978-.686-.163-1.332.119-1.944.492-.612.373-1.181.751-1.798 1.168-2.409 1.54-4.78 3.129-7.19 4.67-2.699 1.773-5.393 3.503-8.092 5.276-.477.344-.513 1.087-.165 1.521.387.481 1.044.509 1.521.165 4.4-2.863 8.8-5.727 13.152-8.551 1.132-.712 2.226-1.473 3.359-2.185.14-.073.506-.209.612-.373.101-.121.039.048-.039-.048-.223-.376-.13-.014-.13-.014-.005.043.199.593.194.636.093.362.19.68.283 1.042.696 2.494 1.436 4.992 2.127 7.53.789 2.855 1.621 5.716 2.41 8.571.156.589.64.993 1.267.885.636-.194 1.185-.794 1.025-1.339Z" fill="#3D954E"/></svg>