<svg width="140" height="140" viewBox="0 0 140 140" fill="none" xmlns="http://www.w3.org/2000/svg">
<path d="M40.9657 39.0994H38.7491C35.0549 39.0994 32.0996 42.0547 32.0996 45.7489V54.7074C32.0996 66.5288 41.7045 76.1338 53.526 76.1338C65.3474 76.1338 74.9524 66.5288 74.9524 54.7074V45.7489C74.9524 42.0547 71.997 39.0994 68.3028 39.0994H66.0863" stroke="#ED7622" stroke-width="2" stroke-miterlimit="10" stroke-linecap="round" stroke-linejoin="round"/>
<path d="M46.3217 41.4083H43.5511C42.2581 41.4083 41.2422 40.3924 41.2422 39.0994C41.2422 37.8064 42.2581 36.7905 43.5511 36.7905H46.3217C47.6147 36.7905 48.6306 37.8064 48.6306 39.0994C48.6306 40.3924 47.6147 41.4083 46.3217 41.4083Z" stroke="#ED7622" stroke-width="2" stroke-miterlimit="10" stroke-linecap="round" stroke-linejoin="round"/>
<path d="M63.5932 41.4083H60.8226C59.5296 41.4083 58.5137 40.3924 58.5137 39.0994C58.5137 37.8064 59.5296 36.7905 60.8226 36.7905H63.5932C64.8862 36.7905 65.9021 37.8064 65.9021 39.0994C65.9021 40.3924 64.8862 41.4083 63.5932 41.4083Z" stroke="#ED7622" stroke-width="2" stroke-miterlimit="10" stroke-linecap="round" stroke-linejoin="round"/>
<path d="M99.9806 60.9875V80.9363C99.9806 93.7736 89.5445 104.21 76.7071 104.21C63.8697 104.21 53.4336 93.7736 53.4336 80.9363V76.2262" stroke="#ED7622" stroke-width="2" stroke-miterlimit="10" stroke-linecap="round" stroke-linejoin="round"/>
<path d="M99.7955 60.2487C103.774 60.2487 106.999 57.0235 106.999 53.045C106.999 49.0665 103.774 45.8413 99.7955 45.8413C95.817 45.8413 92.5918 49.0665 92.5918 53.045C92.5918 57.0235 95.817 60.2487 99.7955 60.2487Z" stroke="#ED7622" stroke-width="2" stroke-miterlimit="10" stroke-linecap="round" stroke-linejoin="round"/>
<path d="M99.7966 55.9081C101.378 55.9081 102.66 54.6263 102.66 53.0451C102.66 51.4639 101.378 50.1821 99.7966 50.1821C98.2154 50.1821 96.9336 51.4639 96.9336 53.0451C96.9336 54.6263 98.2154 55.9081 99.7966 55.9081Z" stroke="#ED7622" stroke-width="2" stroke-miterlimit="10" stroke-linecap="round" stroke-linejoin="round"/>
</svg>
