<svg width="140" height="140" viewBox="0 0 140 140" fill="none" xmlns="http://www.w3.org/2000/svg">
<path d="M47.7983 88.8987C47.7983 92.403 44.9796 95.2978 41.3991 95.2978C37.8948 95.2978 35 92.4791 35 88.8987C35 85.3182 37.8186 82.4995 41.3991 82.4995C44.9796 82.5757 47.7983 85.3944 47.7983 88.8987Z" stroke="#ED7622" stroke-width="2" stroke-miterlimit="10" stroke-linecap="round" stroke-linejoin="round"/>
<path d="M45.8184 84.2518L48.9417 73.2056L49.0941 72.7485" stroke="#ED7622" stroke-width="2" stroke-miterlimit="10" stroke-linecap="round" stroke-linejoin="round"/>
<path d="M50.2366 68.7871L50.7699 66.8826L57.5499 43.3428C57.7023 42.8857 58.2356 42.8857 58.3879 43.3428L59.6068 46.8471C59.8354 47.3804 59.8353 47.9898 59.683 48.5231L52.9791 71.7581L52.522 73.2055L50.6937 79.5285L47.6465 90.1176" stroke="#ED7622" stroke-width="2" stroke-miterlimit="10" stroke-linecap="round" stroke-linejoin="round"/>
<path d="M53.8164 88.8987C53.8164 92.403 56.6351 95.2978 60.2155 95.2978C63.7198 95.2978 66.6147 92.4791 66.6147 88.8987C66.6147 85.3944 63.796 82.4995 60.2155 82.4995C56.6351 82.5757 53.8164 85.3944 53.8164 88.8987Z" stroke="#ED7622" stroke-width="2" stroke-miterlimit="10" stroke-linecap="round" stroke-linejoin="round"/>
<path d="M55.7972 84.2517L52.5977 73.2056" stroke="#ED7622" stroke-width="2" stroke-miterlimit="10" stroke-linecap="round" stroke-linejoin="round"/>
<path d="M48.941 73.2056L41.8562 48.5232C41.7038 47.9899 41.7038 47.3805 41.9324 46.8472L43.1513 43.4191C43.3036 43.0382 43.9131 43.0382 43.9892 43.4191L50.7693 66.9588" stroke="#ED7622" stroke-width="2" stroke-miterlimit="10" stroke-linecap="round" stroke-linejoin="round"/>
<path d="M53.8167 90.1936L50.7695 79.5283" stroke="#ED7622" stroke-width="2" stroke-miterlimit="10" stroke-linecap="round" stroke-linejoin="round"/>
<path d="M53.1314 71.0725C53.1314 72.3676 52.0649 73.4341 50.7698 73.4341C49.4748 73.4341 48.4082 72.3676 48.4082 71.0725C48.4082 69.7775 49.4748 68.7109 50.7698 68.7109C52.0649 68.7109 53.1314 69.7775 53.1314 71.0725Z" stroke="#ED7622" stroke-width="2" stroke-miterlimit="10" stroke-linecap="round" stroke-linejoin="round"/>
<path d="M105.467 50.8086H70.1957C68.1389 50.8086 66.4629 52.4846 66.4629 54.5414V65.2829C66.4629 67.3397 68.1389 69.0157 70.1957 69.0157H105.467C107.524 69.0157 109.2 67.3397 109.2 65.2829V54.5414C109.2 52.4846 107.524 50.8086 105.467 50.8086Z" stroke="#ED7622" stroke-width="2" stroke-miterlimit="10" stroke-linecap="round" stroke-linejoin="round"/>
<path d="M70.2715 65.0544V54.6939C70.2715 54.6177 70.3477 54.5415 70.4239 54.5415H105.314C105.391 54.5415 105.467 54.6177 105.467 54.6939V65.0544C105.467 65.1306 105.391 65.2068 105.314 65.2068H70.4239C70.3477 65.2829 70.2715 65.2067 70.2715 65.0544Z" stroke="#ED7622" stroke-width="2" stroke-miterlimit="10" stroke-linecap="round" stroke-linejoin="round"/>
<path d="M73.5469 54.5415V65.2829" stroke="#ED7622" stroke-width="2" stroke-miterlimit="10" stroke-linecap="round" stroke-linejoin="round"/>
<path d="M77.6602 54.5415V65.2829" stroke="#ED7622" stroke-width="2" stroke-miterlimit="10" stroke-linecap="round" stroke-linejoin="round"/>
<path d="M81.7734 54.5415V65.2829" stroke="#ED7622" stroke-width="2" stroke-miterlimit="10" stroke-linecap="round" stroke-linejoin="round"/>
<path d="M85.8125 54.5415V65.2829" stroke="#ED7622" stroke-width="2" stroke-miterlimit="10" stroke-linecap="round" stroke-linejoin="round"/>
<path d="M89.9258 54.5415V65.2829" stroke="#ED7622" stroke-width="2" stroke-miterlimit="10" stroke-linecap="round" stroke-linejoin="round"/>
<path d="M94.0391 54.5415V65.2829" stroke="#ED7622" stroke-width="2" stroke-miterlimit="10" stroke-linecap="round" stroke-linejoin="round"/>
<path d="M98.0781 54.5415V65.2829" stroke="#ED7622" stroke-width="2" stroke-miterlimit="10" stroke-linecap="round" stroke-linejoin="round"/>
<path d="M102.191 54.5415V65.2829" stroke="#ED7622" stroke-width="2" stroke-miterlimit="10" stroke-linecap="round" stroke-linejoin="round"/>
<path d="M84.0605 69.0157V92.6317C84.0605 94.5362 85.5842 96.0598 87.4887 96.0598C89.3932 96.0598 90.9168 94.5362 90.9168 92.6317V69.0157H84.0605Z" stroke="#ED7622" stroke-width="2" stroke-miterlimit="10" stroke-linecap="round" stroke-linejoin="round"/>
</svg>
