<svg width="140" height="140" viewBox="0 0 140 140" fill="none" xmlns="http://www.w3.org/2000/svg">
<path d="M70.3032 35L37.8418 56.5492H102.765L70.3032 35Z" stroke="#ED7622" stroke-width="2" stroke-miterlimit="10" stroke-linecap="round" stroke-linejoin="round"/>
<path d="M105.7 56.5492H35V62.6013H105.7V56.5492Z" stroke="#ED7622" stroke-width="2" stroke-miterlimit="10" stroke-linecap="round" stroke-linejoin="round"/>
<path d="M101.114 62.6934H39.4922V105.058H101.114V62.6934Z" stroke="#ED7622" stroke-width="2" stroke-miterlimit="10" stroke-linecap="round" stroke-linejoin="round"/>
<path d="M58.1074 104.966V79.4741C58.1074 72.4133 63.8845 66.6362 70.9453 66.6362C78.0061 66.6362 83.7831 72.4133 83.7831 79.4741V104.966" stroke="#ED7622" stroke-width="2" stroke-miterlimit="10" stroke-linecap="round" stroke-linejoin="round"/>
<path d="M101.114 70.6709H80.2988" stroke="#ED7622" stroke-width="2" stroke-miterlimit="10" stroke-linecap="round" stroke-linejoin="round"/>
<path d="M61.5916 70.6709H39.4922" stroke="#ED7622" stroke-width="2" stroke-miterlimit="10" stroke-linecap="round" stroke-linejoin="round"/>
<path d="M101.114 79.3823H83.7832" stroke="#ED7622" stroke-width="2" stroke-miterlimit="10" stroke-linecap="round" stroke-linejoin="round"/>
<path d="M58.1071 79.3823H39.4922" stroke="#ED7622" stroke-width="2" stroke-miterlimit="10" stroke-linecap="round" stroke-linejoin="round"/>
<path d="M101.114 88.0938H83.7832" stroke="#ED7622" stroke-width="2" stroke-miterlimit="10" stroke-linecap="round" stroke-linejoin="round"/>
<path d="M58.1071 88.0938H39.4922" stroke="#ED7622" stroke-width="2" stroke-miterlimit="10" stroke-linecap="round" stroke-linejoin="round"/>
<path d="M101.114 96.8052H83.7832" stroke="#ED7622" stroke-width="2" stroke-miterlimit="10" stroke-linecap="round" stroke-linejoin="round"/>
<path d="M58.1071 96.8052H39.4922" stroke="#ED7622" stroke-width="2" stroke-miterlimit="10" stroke-linecap="round" stroke-linejoin="round"/>
</svg>
