<svg width="140" height="140" viewBox="0 0 140 140" fill="none" xmlns="http://www.w3.org/2000/svg">
<path d="M74.2443 91.7817C73.9252 91.9413 73.6061 92.1008 73.287 92.2604C66.0273 96.0099 57.7305 96.8077 57.7305 96.8077" stroke="#ED7622" stroke-width="2" stroke-miterlimit="10" stroke-linecap="round" stroke-linejoin="round"/>
<path d="M92.5142 77.3418L88.8445 96.0894C88.8445 96.0894 94.3491 96.3287 94.5885 100.477H88.5254" stroke="#ED7622" stroke-width="2" stroke-miterlimit="10" stroke-linecap="round" stroke-linejoin="round"/>
<path d="M83.5779 77.8208V96.7279C86.2105 96.7279 88.5241 98.8021 88.5241 100.557H79.4295L74.7227 81.7299" stroke="#ED7622" stroke-width="2" stroke-miterlimit="10" stroke-linecap="round" stroke-linejoin="round"/>
<path d="M87.8075 45.9897C87.8075 45.9897 90.839 68.2475 77.6758 65.1362" stroke="#ED7622" stroke-width="2" stroke-miterlimit="10" stroke-linecap="round" stroke-linejoin="round"/>
<path d="M70.6543 67.8485C80.1477 68.0081 81.5039 53.4089 81.5039 48.0639C81.5039 39.6873 94.5874 35.7782 99.2144 46.6279C100.012 48.4627 102.645 49.0212 104.639 49.101C105.995 49.1807 106.873 50.6167 106.315 51.8932C105.597 53.4089 104.081 54.9247 101.289 54.8449C95.784 54.7651 96.9009 55.5629 96.8211 57.9562C96.6616 63.5406 97.22 69.9227 91.3165 79.5757C89.8007 82.0488 87.9659 84.3624 85.4928 86.277C84.9343 86.7557 84.2961 87.1545 83.6579 87.6332" stroke="#ED7622" stroke-width="2" stroke-miterlimit="10" stroke-linecap="round" stroke-linejoin="round"/>
<path d="M63.7134 77.8204C63.7134 77.8204 65.7876 90.4252 56.1346 96.7275C56.1346 96.7275 62.5168 96.4084 62.5168 100.796H50.5502C50.5502 100.796 45.6838 91.0634 45.0456 85.7981C43.0512 68.5663 63.6336 67.609 70.654 67.8483" stroke="#ED7622" stroke-width="2" stroke-miterlimit="10" stroke-linecap="round" stroke-linejoin="round"/>
<path d="M44.8867 84.2027C44.8867 84.2027 33.718 86.4365 33 73.4329" stroke="#ED7622" stroke-width="2" stroke-miterlimit="10" stroke-linecap="round" stroke-linejoin="round"/>
</svg>
